<?xml version="1.0" encoding="utf-8"?>
<!-- Generator: Adobe Illustrator 16.0.0, SVG Export Plug-In . SVG Version: 6.00 Build 0)  -->
<!DOCTYPE svg PUBLIC "-//W3C//DTD SVG 1.1//EN" "http://www.w3.org/Graphics/SVG/1.1/DTD/svg11.dtd">
<svg version="1.1" id="Layer_1" xmlns="http://www.w3.org/2000/svg" xmlns:xlink="http://www.w3.org/1999/xlink" x="0px" y="0px"
	 width="778.928px" height="372.958px" viewBox="0 0 778.928 372.958" enable-background="new 0 0 778.928 372.958"
	 xml:space="preserve">
<g>
	<path fill="#FFFFFF" d="M157.737,66.487c-1.914,4.989-37.073,34.404-38.64,38.408c-1.566,4.003-2.517,14.987-0.254,20.209
		s37.464,32.81,39.771,38.771c2.306,5.962,3.755,94.278-0.237,103.086c-3.991,8.808-34.511,38.048-40.659,40.659
		c-6.15,2.611-70.572,1-70.572,1s-2.633-43.251,0-49.365c2.632-6.113,36.225-34.223,38.314-38.313
		c2.089-4.092,0.836-14.032-1.515-19.863c-2.35-5.83-35.289-31.111-38.204-38.204c-2.915-7.093-2.02-101.071,1.332-105.582
		c3.35-4.512,33.81-23.831,39.728-24.875c5.917-1.045,71.145,0,71.145,0S159.652,61.498,157.737,66.487z"/>
	<polygon fill="#FFFFFF" points="39.685,152.919 0,107.485 39.685,62.041 	"/>
	<polygon fill="#FFFFFF" points="164.789,261.245 204.473,215.811 164.789,170.366 	"/>
	<polygon fill="#FFFFFF" points="113.877,313.21 81.399,341.336 48.918,313.21 	"/>
	<polygon fill="#FFFFFF" points="157.118,28.127 124.642,0 92.159,28.127 	"/>
</g>
<text transform="matrix(1 0 0 1 204.4727 313.21)" fill="#FFFFFF" font-family="'LoveloBlack'" font-size="198.5011">ECURE</text>
</svg>
